<svg width="85" height="85" viewBox="0 0 85 85" fill="none" xmlns="http://www.w3.org/2000/svg">
<path fill-rule="evenodd" clip-rule="evenodd" d="M42.9722 84.0555C66.1835 84.0555 85 65.239 85 42.0278C85 18.8165 66.1835 0 42.9722 0C19.761 0 0.944458 18.8165 0.944458 42.0278C0.944458 65.239 19.761 84.0555 42.9722 84.0555ZM23.8048 27.0631C24.987 25.8809 26.5906 25.2167 28.2625 25.2167H57.6819C59.3539 25.2167 60.9574 25.8809 62.1396 27.0631C63.3219 28.2453 63.9861 29.8489 63.9861 31.5208V52.5347C63.9861 54.2066 63.3219 55.8102 62.1396 56.9924C60.9574 58.1747 59.3539 58.8389 57.6819 58.8389H28.2625C26.5906 58.8389 24.987 58.1747 23.8048 56.9924C22.6225 55.8102 21.9583 54.2066 21.9583 52.5347V31.5208C21.9583 29.8489 22.6225 28.2453 23.8048 27.0631ZM44.4642 41.7756L56.8204 29.4194H29.1241L41.4802 41.7756C41.6756 41.9725 41.908 42.1289 42.1641 42.2355C42.4201 42.3422 42.6948 42.3972 42.9722 42.3972C43.2496 42.3972 43.5243 42.3422 43.7803 42.2355C44.0364 42.1289 44.2689 41.9725 44.4642 41.7756ZM59.1679 54.0206C59.5619 53.6265 59.7833 53.092 59.7833 52.5347V32.3824L47.4272 44.7385C46.2451 45.9191 44.6428 46.5822 42.9722 46.5822C41.3016 46.5822 39.6993 45.9191 38.5173 44.7385L26.1611 32.3824V52.5347C26.1611 53.092 26.3825 53.6265 26.7766 54.0206C27.1707 54.4147 27.7052 54.6361 28.2625 54.6361H57.6819C58.2392 54.6361 58.7737 54.4147 59.1679 54.0206Z" fill="#FFBF40"/>
</svg>
