<svg width="85" height="85" viewBox="0 0 85 85" fill="none" xmlns="http://www.w3.org/2000/svg">
<path fill-rule="evenodd" clip-rule="evenodd" d="M42.3227 84.0555C65.5339 84.0555 84.3504 65.239 84.3504 42.0278C84.3504 18.8165 65.5339 0 42.3227 0C19.1114 0 0.294922 18.8165 0.294922 42.0278C0.294922 65.239 19.1114 84.0555 42.3227 84.0555ZM60.7957 26.851C61.1197 23.1693 57.2319 24.6853 57.2319 24.6853C54.3612 25.8736 51.4006 27.0813 48.4081 28.3019C39.1292 32.0868 29.543 35.997 21.377 39.8453C16.9491 41.4697 19.541 43.094 19.541 43.094L26.5608 45.2597C29.8007 46.2342 31.5287 45.1514 31.5287 45.1514L46.6482 34.8642C52.048 31.1825 50.7521 34.2145 49.4561 35.514L38.1164 46.3425C36.3884 47.8585 37.2524 49.158 38.0084 49.8077C40.1509 51.6981 45.4215 55.1568 47.7225 56.6668C48.3212 57.0597 48.7189 57.3206 48.8081 57.3877C49.3481 57.8209 52.2639 59.77 54.208 59.3369C56.1519 58.9037 56.3678 56.4132 56.3678 56.4132L58.9598 39.4122C59.3485 36.4608 59.7945 33.6239 60.1506 31.3581C60.487 29.2179 60.7433 27.5874 60.7957 26.851Z" fill="#FFBF40"/>
</svg>
