<svg width="85" height="85" viewBox="0 0 85 85" fill="none" xmlns="http://www.w3.org/2000/svg">
<path fill-rule="evenodd" clip-rule="evenodd" d="M42.0278 84.0555C65.239 84.0555 84.0555 65.239 84.0555 42.0278C84.0555 18.8165 65.239 0 42.0278 0C18.8165 0 0 18.8165 0 42.0278C0 65.239 18.8165 84.0555 42.0278 84.0555ZM58.6393 24.37C54.3143 20.0397 48.5621 17.6539 42.4339 17.6517C29.8074 17.6517 19.53 27.9276 19.5254 40.5586C19.5239 44.5962 20.5787 48.5375 22.583 52.0109L19.3328 63.8822L31.4769 60.6969C34.8227 62.5223 38.5905 63.4839 42.424 63.4854H42.4332C55.0588 63.4854 65.3363 53.208 65.3416 40.5777C65.3454 34.4556 62.9651 28.7004 58.6393 24.37ZM42.4347 59.616H42.427C39.0101 59.6145 35.659 58.6965 32.7358 56.962L32.0403 56.5493L24.8334 58.4396L26.7567 51.4132L26.3042 50.6924C24.3985 47.6607 23.3917 44.1575 23.3933 40.5594C23.3971 30.061 31.9393 21.5203 42.4416 21.5203C47.5272 21.5218 52.3077 23.5055 55.9027 27.1043C59.4978 30.7031 61.476 35.4868 61.4745 40.5747C61.4706 51.0746 52.9292 59.616 42.4347 59.616ZM52.8781 45.3553C52.3056 45.0687 49.4918 43.6843 48.9666 43.4933C48.4423 43.3021 48.0601 43.2066 47.6786 43.7799C47.2972 44.3532 46.2003 45.642 45.8662 46.0242C45.5322 46.4064 45.1982 46.4538 44.6263 46.1672C44.5328 46.1203 44.4051 46.0649 44.2476 45.9966L44.2473 45.9965C43.4412 45.6469 41.8517 44.9575 40.0231 43.3258C38.3215 41.8077 37.1726 39.9334 36.8386 39.3608C36.5046 38.7876 36.8026 38.478 37.0893 38.1928C37.2611 38.0215 37.4585 37.7811 37.6558 37.5409C37.7541 37.421 37.8526 37.3011 37.9477 37.1899C38.1902 36.9067 38.2957 36.6916 38.4388 36.4002C38.4644 36.3479 38.4912 36.2932 38.5203 36.2352C38.7113 35.853 38.6159 35.5189 38.4729 35.2323C38.3774 35.0408 37.8349 33.7203 37.3429 32.523C37.0983 31.9276 36.8662 31.3627 36.7079 30.9822C36.2975 29.9969 35.8819 29.9994 35.5482 30.0014C35.5039 30.0018 35.461 30.002 35.4198 29.9999C35.0865 29.9831 34.7043 29.9801 34.3229 29.9801C33.9414 29.9801 33.3215 30.123 32.7964 30.6963C32.7626 30.7333 32.7247 30.7736 32.6836 30.8175L32.6834 30.8179C32.0869 31.4547 30.7929 32.8361 30.7929 35.4716C30.7929 38.2822 32.8338 40.9979 33.1283 41.3899L33.1305 41.3926C33.1491 41.4175 33.1823 41.4653 33.2299 41.5336C33.9132 42.5138 37.5405 47.7176 42.9087 50.0358C44.2747 50.6259 45.3403 50.9776 46.1719 51.2412C47.5433 51.677 48.7909 51.6158 49.7777 51.4683C50.8776 51.304 53.164 50.084 53.641 48.747C54.118 47.4101 54.118 46.2635 53.9751 46.0249C53.8597 45.8319 53.5892 45.7011 53.1883 45.5072L53.1882 45.5072C53.0922 45.4608 52.9887 45.4107 52.8781 45.3553Z" fill="#FFBF40"/>
</svg>
