<svg width="85" height="85" viewBox="0 0 85 85" fill="none" xmlns="http://www.w3.org/2000/svg">
<path fill-rule="evenodd" clip-rule="evenodd" d="M42.6746 84.0555C65.8859 84.0555 84.7024 65.239 84.7024 42.0278C84.7024 18.8165 65.8859 0 42.6746 0C19.4633 0 0.646851 18.8165 0.646851 42.0278C0.646851 65.239 19.4633 84.0555 42.6746 84.0555ZM21.6607 28.5789C22.002 44.9594 30.1922 54.8036 44.5514 54.8036H45.3655V45.432C50.6419 45.957 54.6317 49.8159 56.2329 54.8036H63.6885C61.6409 47.3483 56.2592 43.2269 52.8991 41.6519C56.2592 39.7093 60.9844 34.9841 62.1132 28.5789H55.3403C53.8702 33.7765 49.5131 38.5017 45.3655 38.948V28.5789H38.5925V46.7445C34.3923 45.6945 29.0897 40.6018 28.8535 28.5789H21.6607Z" fill="#FFBF40"/>
</svg>
